<svg width="20" height="20" viewBox="0 0 20 20" fill="none" xmlns="http://www.w3.org/2000/svg">
<g clip-path="url(#clip0_204_69)">
<g filter="url(#filter0_d_204_69)">
<path d="M10 20C15.5228 20 20 15.5228 20 10C20 4.47715 15.5228 0 10 0C4.47715 0 0 4.47715 0 10C0 15.5228 4.47715 20 10 20Z" fill="url(#paint0_linear_204_69)"/>
</g>
<path d="M10.311 2.5V8.04375L14.9967 10.1375L10.311 2.5Z" fill="white" fill-opacity="0.602"/>
<path d="M10.3112 2.5L5.625 10.1375L10.3112 8.04375V2.5Z" fill="white"/>
<path d="M10.311 13.7298V17.4966L14.9998 11.0098L10.311 13.7298Z" fill="white" fill-opacity="0.602"/>
<path d="M10.3112 17.4966V13.7291L5.625 11.0098L10.3112 17.4966Z" fill="white"/>
<path d="M10.311 12.858L14.9967 10.1374L10.311 8.04492V12.858Z" fill="white" fill-opacity="0.2"/>
<path d="M5.625 10.1374L10.3112 12.858V8.04492L5.625 10.1374Z" fill="white" fill-opacity="0.602"/>
</g>
<defs>
<filter id="filter0_d_204_69" x="-20" y="-10" width="60" height="60" filterUnits="userSpaceOnUse" color-interpolation-filters="sRGB">
<feFlood flood-opacity="0" result="BackgroundImageFix"/>
<feColorMatrix in="SourceAlpha" type="matrix" values="0 0 0 0 0 0 0 0 0 0 0 0 0 0 0 0 0 0 127 0" result="hardAlpha"/>
<feOffset dy="10"/>
<feGaussianBlur stdDeviation="10"/>
<feColorMatrix type="matrix" values="0 0 0 0 0.196078 0 0 0 0 0.34902 0 0 0 0 0.917647 0 0 0 0.05 0"/>
<feBlend mode="normal" in2="BackgroundImageFix" result="effect1_dropShadow_204_69"/>
<feBlend mode="normal" in="SourceGraphic" in2="effect1_dropShadow_204_69" result="shape"/>
</filter>
<linearGradient id="paint0_linear_204_69" x1="10" y1="0" x2="10" y2="20" gradientUnits="userSpaceOnUse">
<stop stop-color="#5978E9"/>
<stop offset="1" stop-color="#143BCC"/>
</linearGradient>
<clipPath id="clip0_204_69">
<rect width="20" height="20" fill="white"/>
</clipPath>
</defs>
</svg>
