<svg width="22" height="22" viewBox="0 0 22 22" fill="none" xmlns="http://www.w3.org/2000/svg">
<path fill-rule="evenodd" clip-rule="evenodd" d="M9.98094 0.0253132C6.65611 0.34859 3.66053 2.14245 1.81984 4.91255C0.908151 6.28461 0.345818 7.76556 0.079978 9.49464C-0.0266594 10.1881 -0.0266594 11.8144 0.079978 12.5079C0.461324 14.9884 1.50393 17.0776 3.21345 18.7869C4.92292 20.4962 7.0124 21.5387 9.49321 21.92C10.1868 22.0267 11.8132 22.0267 12.5068 21.92C14.9876 21.5387 17.0771 20.4962 18.7866 18.7869C20.4961 17.0776 21.5387 14.9884 21.92 12.5079C22.0267 11.8144 22.0267 10.1881 21.92 9.49464C21.5387 7.01411 20.4961 4.92487 18.7866 3.21559C17.0887 1.51789 14.9744 0.4584 12.5498 0.0903127C12.0119 0.00865427 10.5364 -0.0286666 9.98094 0.0253132ZM11.5694 5.63108C11.868 5.76779 12.1002 6.00024 12.2431 6.30553C12.4754 6.80206 12.3598 7.44345 11.9672 7.83594C11.4438 8.3593 10.5562 8.3593 10.0328 7.83594C9.69719 7.5004 9.55224 6.95983 9.68001 6.52037C9.92273 5.68553 10.7933 5.27578 11.5694 5.63108ZM12.0597 9.73406C12.1251 9.78288 12.2185 9.87629 12.2673 9.94163C12.3543 10.0581 12.3564 10.1117 12.3679 12.5933L12.3796 15.1261L12.8492 15.1407C13.242 15.1528 13.3381 15.1697 13.4375 15.244C13.6633 15.4128 13.7337 15.5503 13.7337 15.8224C13.7337 16.0946 13.6632 16.2322 13.4373 16.4009C13.3207 16.488 13.2745 16.4896 11 16.4896C8.72553 16.4896 8.67929 16.488 8.56267 16.4009C8.33678 16.2322 8.26626 16.0946 8.26626 15.8224C8.26626 15.5503 8.33669 15.4128 8.56254 15.244C8.66186 15.1697 8.75803 15.1528 9.15182 15.1407L9.62237 15.1261V13.0637V11.0013H9.212C8.74374 11.0013 8.57455 10.948 8.40588 10.7476C8.19742 10.4999 8.19734 10.1253 8.40575 9.87762C8.61713 9.62641 8.63185 9.6246 10.3619 9.63544C11.8815 9.64491 11.9454 9.64866 12.0597 9.73406Z" fill="#D6A541"/>
</svg>
