<svg width="24" height="24" viewBox="0 0 24 24" fill="none" xmlns="http://www.w3.org/2000/svg">
<g clip-path="url(#clip0_302_437)">
<path d="M23.6395 14.9031C22.0368 21.3317 15.5253 25.2437 9.09588 23.641C2.6695 22.0382 -1.24287 15.5267 0.360255 9.09847C1.96225 2.6691 8.47338 -1.24365 14.9009 0.359098C21.3299 1.96185 25.2419 8.4741 23.6391 14.9031H23.6395Z" fill="#FFCF62"/>
<path d="M17.2905 10.2908C17.529 8.69402 16.3132 7.83564 14.6508 7.26302L15.1901 5.10002L13.8731 4.77189L13.3481 6.87789C13.0023 6.79164 12.6468 6.71027 12.2936 6.62964L12.8223 4.50977L11.5065 4.18164L10.9668 6.34389C10.6803 6.27864 10.3991 6.21414 10.1261 6.14627L10.1276 6.13952L8.31184 5.68614L7.96159 7.09239C7.96159 7.09239 8.93847 7.31627 8.91784 7.33014C9.45109 7.46327 9.54784 7.81614 9.53134 8.09589L8.91709 10.56C8.95384 10.5694 9.00147 10.5829 9.05397 10.6039L8.91522 10.5694L8.05384 14.0213C7.98859 14.1833 7.82322 14.4263 7.45047 14.334C7.46359 14.3531 6.49347 14.0951 6.49347 14.0951L5.83984 15.6026L7.55359 16.0298C7.87234 16.1096 8.18472 16.1933 8.49184 16.272L7.94697 18.4601L9.26209 18.7883L9.80209 16.6238C10.161 16.7213 10.5097 16.8113 10.851 16.896L10.3132 19.0504L11.6298 19.3785L12.1747 17.1949C14.4198 17.6198 16.1085 17.4484 16.8183 15.4181C17.391 13.7831 16.7902 12.84 15.609 12.2246C16.4692 12.0255 17.1172 11.4596 17.2901 10.2908H17.2905ZM14.2818 14.5091C13.8746 16.1441 11.1221 15.2606 10.2292 15.0386L10.9522 12.1403C11.8447 12.363 14.7063 12.804 14.2822 14.5091H14.2818ZM14.6887 10.2671C14.3175 11.7544 12.0262 10.9988 11.2826 10.8135L11.9381 8.18477C12.6817 8.37002 15.0757 8.71577 14.6887 10.2671Z" fill="#1E2028"/>
</g>
<defs>
<clipPath id="clip0_302_437">
<rect width="24" height="24" fill="white"/>
</clipPath>
</defs>
</svg>
