<svg width="134" height="134" viewBox="0 0 134 134" fill="none" xmlns="http://www.w3.org/2000/svg">
<path d="M28.6999 82.004C27.1427 81.7332 25.9079 80.909 25.3012 79.4387C24.696 77.9761 24.8904 76.5244 26.0732 75.3912C28.277 73.2807 30.5461 71.2189 32.8866 69.2395C34.555 67.8271 37.1554 68.0009 38.7774 69.4522C40.3821 70.8887 40.6419 73.2911 39.1232 74.8413C36.905 77.1078 34.4926 79.2183 32.0209 81.2581C31.1392 81.9852 29.9963 82.1362 28.7026 82.0043L28.6999 82.004Z" fill="#F1AC44"/>
<path d="M33.3256 85.3489C33.3888 84.5502 33.8801 83.8111 34.5815 83.1765C36.6262 81.3189 38.661 79.4524 40.7352 77.6213C42.4806 76.0808 44.9007 76.1564 46.6076 77.7503C48.131 79.1719 48.1627 81.4601 46.5595 82.9211C44.4207 84.8716 42.2232 86.7666 40.0064 88.6415C38.7248 89.727 36.9082 89.8826 35.4096 89.1509C33.9264 88.4287 33.1016 86.9853 33.3232 85.346L33.3256 85.3489Z" fill="#F1AC44"/>
<path d="M45.3862 95.4679C43.9261 95.2369 42.9829 94.3972 42.5176 93.1781C42.0708 92.0045 42.3094 90.8608 43.3048 89.9643C44.9178 88.5121 46.5453 87.0743 48.2265 85.6889C49.6046 84.5515 51.5586 84.6187 52.8995 85.7458C54.1884 86.8285 54.4408 88.7467 53.2347 90.0017C51.6118 91.6944 49.8485 93.281 48.0816 94.8544C47.3624 95.497 46.3898 95.6433 45.3831 95.47L45.3862 95.4679Z" fill="#F1AC44"/>
<path d="M57.8267 91.9744C60.4637 92.318 61.8304 95.0662 60.2845 97.0709C59.4413 98.164 58.4551 99.1888 57.4142 100.131C55.9766 101.429 53.7808 101.284 52.2598 99.9032C50.8888 98.6579 50.7807 96.742 52.0955 95.4087C53.0577 94.4344 54.1001 93.5207 55.1441 92.6149C55.8925 91.9631 56.8381 91.8491 57.8298 91.9723L57.8267 91.9744Z" fill="#F1AC44"/>
<path d="M131.088 48.3631C132.309 50.1195 133.75 48.5905 133.08 47.4605C131.717 42.6219 126.104 35.0665 122.703 31.2391C104.908 10.7711 64.2573 5.3692 45.3138 22.7617C36.0803 31.2391 33.1471 47.4553 23.4339 42.3694C14.362 37.6194 25.7908 24.7411 30.5416 20.0956C49.2792 1.49236 77.4949 -1.13318 103.852 10.2612C95.219 5.23831 85.0219 2.02562 74.6079 0.988574C64.194 -0.0484754 53.5631 1.09017 43.9048 4.5036C34.2465 7.91707 25.4029 13.339 18.2473 20.3362C-3.91824 42.011 -4.23608 67.8696 31.9105 67.8696C32.6665 66.6196 34.4305 65.3696 37.6061 65.6093C41.1706 66.4312 43.8681 69.5871 43.2879 73.5779C44.1069 73.5885 44.9228 73.6394 45.7068 73.8721C49.2074 74.9134 51.2503 77.8506 50.8399 81.2475C50.8366 81.2744 50.8325 81.301 50.828 81.3272C50.823 81.356 50.8176 81.3843 50.8123 81.4122C50.7577 81.6972 50.7133 81.9289 51.297 82.0256C55.1834 82.6712 57.1566 84.8444 57.1996 88.4898C57.206 88.9815 57.3599 89.013 57.822 89.0488C63.0672 89.4552 65.8804 94.689 62.9559 98.6961C62.4309 99.4138 62.7837 99.5955 63.2746 99.8483L63.3217 99.8726C64.9469 100.709 67.0269 100.349 68.1756 99.0484C69.3539 97.7163 69.2981 95.7661 67.9551 94.4809C66.5719 93.1554 65.165 91.8522 63.7585 90.5494C63.1617 89.9965 62.5649 89.4437 61.9701 88.8894C61.8573 88.7846 61.7442 88.6799 61.6309 88.5753L61.2621 88.2356C60.6998 87.7178 60.1368 87.1994 59.5894 86.6691C58.8163 85.9213 58.7778 85.1153 59.4431 84.4993C60.1308 83.863 61.0431 83.9205 61.887 84.6591C62.0292 84.7846 62.168 84.9137 62.3071 85.0429C62.3608 85.0929 62.4146 85.1429 62.4686 85.1928C63.2886 85.9549 64.1076 86.7179 64.9266 87.4809C67.02 89.4312 69.1132 91.3813 71.223 93.3164C72.752 94.7183 74.8677 94.7441 76.2616 93.4407C77.6555 92.1374 77.5312 90.1991 75.9566 88.8426C73.9322 87.0981 71.8986 85.3601 69.8707 83.6203C69.5129 83.3132 69.1534 83.0078 68.7939 82.7024L68.7873 82.6968C67.9414 81.9781 67.0954 81.2592 66.2717 80.5193C65.5457 79.8688 65.5485 79.0272 66.1929 78.4212C66.8149 77.8355 67.6472 77.812 68.4178 78.3661C68.5541 78.4635 68.6784 78.5739 68.8029 78.6846C68.851 78.7274 68.8992 78.7701 68.9481 78.8122C69.3586 79.1643 69.7692 79.5161 70.1798 79.8679L71.6816 81.1537C73.9548 83.0998 76.2273 85.0452 78.4881 87.0034C79.5527 87.9266 80.7678 88.4076 82.2264 88.2085C83.8583 87.9846 85.0157 87.1409 85.5355 85.7083C86.1099 84.1298 85.6721 82.7411 84.3613 81.5794C80.8849 78.4959 77.4085 75.4123 73.9392 72.3194C73.0282 71.5065 72.9429 70.677 73.6585 70.0212C74.3773 69.3633 75.2597 69.435 76.1881 70.2424C76.9367 70.8905 77.6694 71.552 78.4114 72.2069C79.4273 73.1051 80.4426 74.0036 81.4578 74.9021C83.5532 76.7567 85.6482 78.6109 87.7477 80.4599C88.855 81.434 90.1671 81.7258 91.6443 81.3229C93.0693 80.934 93.8635 80.0054 94.1997 78.7261C94.3949 77.9765 94.3497 77.3885 93.2797 77.1337C90.6507 76.5062 88.538 75.0817 86.6801 73.3015C83.6466 70.3917 80.6044 67.488 77.5621 64.5843C75.8256 62.9269 74.0892 61.2696 72.3544 59.6111C71.7805 59.0631 71.1559 58.5954 70.3655 58.311C69.057 57.8415 67.7964 58.0368 66.5602 58.5046C63.5641 59.636 60.4917 60.0306 57.2903 59.4175C55.4855 59.0708 53.8046 58.4645 52.2839 57.5215C49.3859 55.7216 49.2966 52.1266 52.0469 50.1411C52.9342 49.5013 53.7896 48.8233 54.6256 48.1605C54.9927 47.8695 55.3562 47.5814 55.717 47.3008C55.2502 47.244 54.7667 47.1826 54.2712 47.1197C53.0724 46.9674 51.8034 46.8062 50.5307 46.6803C36.9201 45.3291 57.4661 25.2071 62.3947 22.7617C75.0732 16.8157 96.0815 20.0744 109.996 27.6469C123.91 35.2195 129.181 45.6194 131.088 48.3631Z" fill="#EB9516"/>
<path d="M96.3246 74.7988C93.3622 74.4361 91.1243 73.3754 89.2752 71.6115C87.91 70.3072 86.5428 69.0044 85.1755 67.7017C81.7122 64.4017 78.2487 61.1016 74.8177 57.7754C72.1239 55.1634 69.0153 54.4674 65.3875 55.812C61.7507 57.1606 58.1805 57.248 54.6752 55.4735C52.7761 54.5125 52.704 53.3437 54.4541 52.1727C55.2479 51.641 56.0454 51.1137 56.8429 50.5865C58.7481 49.3268 60.6536 48.067 62.5082 46.7468C64.9372 45.0199 67.5155 44.6186 70.4427 45.4146C75.8311 46.8831 81.236 48.2915 86.6436 49.7006C89.2273 50.3739 93.3676 50.5865 94.8837 50.9614C121.572 53.6187 137.781 62.9632 130.712 89.2961C127.782 98.333 122.315 106.905 115.159 113.902C108.003 120.899 99.1598 126.321 89.5015 129.735C79.8432 133.148 69.2124 134.287 58.7984 133.25C48.3844 132.213 38.1873 129 29.5545 123.977C55.9114 135.372 84.1272 132.746 102.865 114.143C110.361 106.812 117.68 96.4407 108.608 93.8692C100.292 91.5121 96.6051 102.854 88.0925 111.477C67.4994 132.035 28.4982 123.467 10.7032 102.999C7.30213 99.172 1.68952 91.6165 0.326704 86.7779C-0.0934875 85.8692 1.30699 84.863 2.17455 86.1192C6.31506 92.1131 10.7032 98.3693 23.4107 106.592C37.3248 114.164 58.3331 117.423 71.0116 111.477C83.6473 105.207 92.6193 92.1379 95.2019 81.953C96.1195 78.3342 96.0939 76.2609 96.8344 74.8449C96.6562 74.8336 96.4842 74.8176 96.3195 74.7957L96.3246 74.7988Z" fill="#F1AC44"/>
</svg>
